<?xml version="1.0" encoding="UTF-8" standalone="no"?><svg xmlns="http://www.w3.org/2000/svg" xmlns:xlink="http://www.w3.org/1999/xlink" contentStyleType="text/css" height="540px" preserveAspectRatio="none" style="width:523px;height:540px;background:#FFFFFF;" version="1.1" viewBox="0 0 523 540" width="523px" zoomAndPan="magnify"><defs/><g><!--cluster org.hmis--><g id="cluster_org.hmis"><path d="M8.5,6 L70.5,6 A3.75,3.75 0 0 1 73,8.5 L80,29.6094 L513.5,29.6094 A2.5,2.5 0 0 1 516,32.1094 L516,511.5 A2.5,2.5 0 0 1 513.5,514 L8.5,514 A2.5,2.5 0 0 1 6,511.5 L6,8.5 A2.5,2.5 0 0 1 8.5,6 " fill="none" style="stroke:#000000;stroke-width:1.5;"/><line style="stroke:#000000;stroke-width:1.5;" x1="6" x2="80" y1="29.6094" y2="29.6094"/><text fill="#000000" font-family="sans-serif" font-size="14" font-weight="bold" lengthAdjust="spacing" textLength="61" x="10" y="22.5332">org.hmis</text></g><!--class org.hmis.Coche--><a href="Coche.html" target="_top" title="Coche.html" xlink:actuate="onRequest" xlink:href="Coche.html" xlink:show="new" xlink:title="Coche.html" xlink:type="simple"><g id="elem_org.hmis.Coche"><rect codeLine="3" fill="#F1F1F1" height="329.75" id="org.hmis.Coche" rx="2.5" ry="2.5" style="stroke:#181818;stroke-width:0.5;" width="205" x="22.5" y="42"/><ellipse cx="100.25" cy="58" fill="#ADD1B2" rx="11" ry="11" style="stroke:#181818;stroke-width:1.0;"/><path d="M103.0156,53.875 Q103.1719,53.6563 103.3594,53.5469 Q103.5469,53.4375 103.7656,53.4375 Q104.1406,53.4375 104.375,53.7031 Q104.6094,53.9531 104.6094,54.5625 L104.6094,56.0156 Q104.6094,56.625 104.375,56.8906 Q104.1406,57.1563 103.7656,57.1563 Q103.4219,57.1563 103.2188,56.9531 Q103.0156,56.7656 102.9063,56.25 Q102.8594,55.8906 102.6719,55.7031 Q102.3438,55.3281 101.7344,55.1094 Q101.125,54.8906 100.5,54.8906 Q99.7344,54.8906 99.0938,55.2188 Q98.4688,55.5469 97.9688,56.2969 Q97.4844,57.0469 97.4844,58.0781 L97.4844,59.1719 Q97.4844,60.4063 98.375,61.2344 Q99.2656,62.0469 100.8594,62.0469 Q101.7969,62.0469 102.4531,61.7969 Q102.8438,61.6406 103.2656,61.2031 Q103.5313,60.9375 103.6719,60.8594 Q103.8281,60.7813 104.0313,60.7813 Q104.3594,60.7813 104.6094,61.0469 Q104.875,61.2969 104.875,61.6406 Q104.875,61.9844 104.5313,62.3906 Q104.0313,62.9688 103.2344,63.2969 Q102.1563,63.75 100.8594,63.75 Q99.3438,63.75 98.1406,63.125 Q97.1563,62.625 96.4688,61.5625 Q95.7813,60.4844 95.7813,59.2031 L95.7813,58.0469 Q95.7813,56.7188 96.3906,55.5781 Q97.0156,54.4219 98.1094,53.8125 Q99.2031,53.1875 100.4375,53.1875 Q101.1719,53.1875 101.8125,53.3594 Q102.4688,53.5156 103.0156,53.875 Z " fill="#000000"/><text fill="#000000" font-family="sans-serif" font-size="14" lengthAdjust="spacing" textLength="41" x="120.75" y="63.7285">Coche</text><line style="stroke:#181818;stroke-width:0.5;" x1="23.5" x2="226.5" y1="74" y2="74"/><rect fill="none" height="6" style="stroke:#C82930;stroke-width:1.0;" width="6" x="30.5" y="85.3047"/><text fill="#000000" font-family="sans-serif" font-size="14" lengthAdjust="spacing" textLength="84" x="42.5" y="92.5332">marca: String</text><rect fill="none" height="6" style="stroke:#C82930;stroke-width:1.0;" width="6" x="30.5" y="102.9141"/><text fill="#000000" font-family="sans-serif" font-size="14" lengthAdjust="spacing" textLength="91" x="42.5" y="110.1426">modelo: String</text><rect fill="none" height="6" style="stroke:#C82930;stroke-width:1.0;" width="6" x="30.5" y="120.5234"/><text fill="#000000" font-family="sans-serif" font-size="14" lengthAdjust="spacing" textLength="47" x="42.5" y="127.752">año: int</text><rect fill="none" height="6" style="stroke:#C82930;stroke-width:1.0;" width="6" x="30.5" y="138.1328"/><text fill="#000000" font-family="sans-serif" font-size="14" lengthAdjust="spacing" textLength="62" x="42.5" y="145.3613">precio: int</text><line style="stroke:#181818;stroke-width:0.5;" x1="23.5" x2="226.5" y1="152.4375" y2="152.4375"/><ellipse cx="33.5" cy="166.7422" fill="#84BE84" rx="3" ry="3" style="stroke:#038048;stroke-width:1.0;"/><text fill="#000000" font-family="sans-serif" font-size="14" lengthAdjust="spacing" textLength="51" x="42.5" y="170.9707">Coche()</text><ellipse cx="33.5" cy="184.3516" fill="#84BE84" rx="3" ry="3" style="stroke:#038048;stroke-width:1.0;"/><text fill="#000000" font-family="sans-serif" font-size="14" lengthAdjust="spacing" textLength="179" x="42.5" y="188.5801">Coche(String, String, int, int)</text><ellipse cx="33.5" cy="201.9609" fill="#84BE84" rx="3" ry="3" style="stroke:#038048;stroke-width:1.0;"/><text fill="#000000" font-family="sans-serif" font-size="14" lengthAdjust="spacing" textLength="114" x="42.5" y="206.1895">getMarca(): String</text><ellipse cx="33.5" cy="219.5703" fill="#84BE84" rx="3" ry="3" style="stroke:#038048;stroke-width:1.0;"/><text fill="#000000" font-family="sans-serif" font-size="14" lengthAdjust="spacing" textLength="139" x="42.5" y="223.7988">setMarca(String): void</text><ellipse cx="33.5" cy="237.1797" fill="#84BE84" rx="3" ry="3" style="stroke:#038048;stroke-width:1.0;"/><text fill="#000000" font-family="sans-serif" font-size="14" lengthAdjust="spacing" textLength="121" x="42.5" y="241.4082">getModelo(): String</text><ellipse cx="33.5" cy="254.7891" fill="#84BE84" rx="3" ry="3" style="stroke:#038048;stroke-width:1.0;"/><text fill="#000000" font-family="sans-serif" font-size="14" lengthAdjust="spacing" textLength="146" x="42.5" y="259.0176">setModelo(String): void</text><ellipse cx="33.5" cy="272.3984" fill="#84BE84" rx="3" ry="3" style="stroke:#038048;stroke-width:1.0;"/><text fill="#000000" font-family="sans-serif" font-size="14" lengthAdjust="spacing" textLength="78" x="42.5" y="276.627">getAño(): int</text><ellipse cx="33.5" cy="290.0078" fill="#84BE84" rx="3" ry="3" style="stroke:#038048;stroke-width:1.0;"/><text fill="#000000" font-family="sans-serif" font-size="14" lengthAdjust="spacing" textLength="103" x="42.5" y="294.2363">setAño(int): void</text><ellipse cx="33.5" cy="307.6172" fill="#84BE84" rx="3" ry="3" style="stroke:#038048;stroke-width:1.0;"/><text fill="#000000" font-family="sans-serif" font-size="14" lengthAdjust="spacing" textLength="93" x="42.5" y="311.8457">getPrecio(): int</text><ellipse cx="33.5" cy="325.2266" fill="#84BE84" rx="3" ry="3" style="stroke:#038048;stroke-width:1.0;"/><text fill="#000000" font-family="sans-serif" font-size="14" lengthAdjust="spacing" textLength="118" x="42.5" y="329.4551">setPrecio(int): void</text><ellipse cx="33.5" cy="342.8359" fill="#84BE84" rx="3" ry="3" style="stroke:#038048;stroke-width:1.0;"/><text fill="#000000" font-family="sans-serif" font-size="14" lengthAdjust="spacing" textLength="152" x="42.5" y="347.0645">equals(Object): boolean</text><ellipse cx="33.5" cy="360.4453" fill="#84BE84" rx="3" ry="3" style="stroke:#038048;stroke-width:1.0;"/><text fill="#000000" font-family="sans-serif" font-size="14" lengthAdjust="spacing" textLength="104" x="42.5" y="364.6738">toString(): String</text></g></a><!--class org.hmis.JsonReader--><a href="JsonReader.html" target="_top" title="JsonReader.html" xlink:actuate="onRequest" xlink:href="JsonReader.html" xlink:show="new" xlink:title="JsonReader.html" xlink:type="simple"><g id="elem_org.hmis.JsonReader"><rect codeLine="22" fill="#F1F1F1" height="65.6094" id="org.hmis.JsonReader" rx="2.5" ry="2.5" style="stroke:#181818;stroke-width:0.5;" width="237" x="262.5" y="174"/><ellipse cx="338.75" cy="190" fill="#ADD1B2" rx="11" ry="11" style="stroke:#181818;stroke-width:1.0;"/><path d="M341.5156,185.875 Q341.6719,185.6563 341.8594,185.5469 Q342.0469,185.4375 342.2656,185.4375 Q342.6406,185.4375 342.875,185.7031 Q343.1094,185.9531 343.1094,186.5625 L343.1094,188.0156 Q343.1094,188.625 342.875,188.8906 Q342.6406,189.1563 342.2656,189.1563 Q341.9219,189.1563 341.7188,188.9531 Q341.5156,188.7656 341.4063,188.25 Q341.3594,187.8906 341.1719,187.7031 Q340.8438,187.3281 340.2344,187.1094 Q339.625,186.8906 339,186.8906 Q338.2344,186.8906 337.5938,187.2188 Q336.9688,187.5469 336.4688,188.2969 Q335.9844,189.0469 335.9844,190.0781 L335.9844,191.1719 Q335.9844,192.4063 336.875,193.2344 Q337.7656,194.0469 339.3594,194.0469 Q340.2969,194.0469 340.9531,193.7969 Q341.3438,193.6406 341.7656,193.2031 Q342.0313,192.9375 342.1719,192.8594 Q342.3281,192.7813 342.5313,192.7813 Q342.8594,192.7813 343.1094,193.0469 Q343.375,193.2969 343.375,193.6406 Q343.375,193.9844 343.0313,194.3906 Q342.5313,194.9688 341.7344,195.2969 Q340.6563,195.75 339.3594,195.75 Q337.8438,195.75 336.6406,195.125 Q335.6563,194.625 334.9688,193.5625 Q334.2813,192.4844 334.2813,191.2031 L334.2813,190.0469 Q334.2813,188.7188 334.8906,187.5781 Q335.5156,186.4219 336.6094,185.8125 Q337.7031,185.1875 338.9375,185.1875 Q339.6719,185.1875 340.3125,185.3594 Q340.9688,185.5156 341.5156,185.875 Z " fill="#000000"/><text fill="#000000" font-family="sans-serif" font-size="14" lengthAdjust="spacing" textLength="76" x="359.25" y="195.7285">JsonReader</text><line style="stroke:#181818;stroke-width:0.5;" x1="263.5" x2="498.5" y1="206" y2="206"/><line style="stroke:#181818;stroke-width:0.5;" x1="263.5" x2="498.5" y1="214" y2="214"/><ellipse cx="273.5" cy="228.3047" fill="#84BE84" rx="3" ry="3" style="stroke:#038048;stroke-width:1.0;"/><text fill="#000000" font-family="sans-serif" font-size="14" lengthAdjust="spacing" text-decoration="underline" textLength="211" x="282.5" y="232.5332">leerCochesJSON(String): Coche[]</text></g></a><!--class org.hmis.Main--><a href="Main.html" target="_top" title="Main.html" xlink:actuate="onRequest" xlink:href="Main.html" xlink:show="new" xlink:title="Main.html" xlink:type="simple"><g id="elem_org.hmis.Main"><rect codeLine="26" fill="#F1F1F1" height="65.6094" id="org.hmis.Main" rx="2.5" ry="2.5" style="stroke:#181818;stroke-width:0.5;" width="145" x="52.5" y="432"/><ellipse cx="105.75" cy="448" fill="#ADD1B2" rx="11" ry="11" style="stroke:#181818;stroke-width:1.0;"/><path d="M108.5156,443.875 Q108.6719,443.6563 108.8594,443.5469 Q109.0469,443.4375 109.2656,443.4375 Q109.6406,443.4375 109.875,443.7031 Q110.1094,443.9531 110.1094,444.5625 L110.1094,446.0156 Q110.1094,446.625 109.875,446.8906 Q109.6406,447.1563 109.2656,447.1563 Q108.9219,447.1563 108.7188,446.9531 Q108.5156,446.7656 108.4063,446.25 Q108.3594,445.8906 108.1719,445.7031 Q107.8438,445.3281 107.2344,445.1094 Q106.625,444.8906 106,444.8906 Q105.2344,444.8906 104.5938,445.2188 Q103.9688,445.5469 103.4688,446.2969 Q102.9844,447.0469 102.9844,448.0781 L102.9844,449.1719 Q102.9844,450.4063 103.875,451.2344 Q104.7656,452.0469 106.3594,452.0469 Q107.2969,452.0469 107.9531,451.7969 Q108.3438,451.6406 108.7656,451.2031 Q109.0313,450.9375 109.1719,450.8594 Q109.3281,450.7813 109.5313,450.7813 Q109.8594,450.7813 110.1094,451.0469 Q110.375,451.2969 110.375,451.6406 Q110.375,451.9844 110.0313,452.3906 Q109.5313,452.9688 108.7344,453.2969 Q107.6563,453.75 106.3594,453.75 Q104.8438,453.75 103.6406,453.125 Q102.6563,452.625 101.9688,451.5625 Q101.2813,450.4844 101.2813,449.2031 L101.2813,448.0469 Q101.2813,446.7188 101.8906,445.5781 Q102.5156,444.4219 103.6094,443.8125 Q104.7031,443.1875 105.9375,443.1875 Q106.6719,443.1875 107.3125,443.3594 Q107.9688,443.5156 108.5156,443.875 Z " fill="#000000"/><text fill="#000000" font-family="sans-serif" font-size="14" lengthAdjust="spacing" textLength="30" x="126.25" y="453.7285">Main</text><line style="stroke:#181818;stroke-width:0.5;" x1="53.5" x2="196.5" y1="464" y2="464"/><line style="stroke:#181818;stroke-width:0.5;" x1="53.5" x2="196.5" y1="472" y2="472"/><ellipse cx="63.5" cy="486.3047" fill="#84BE84" rx="3" ry="3" style="stroke:#038048;stroke-width:1.0;"/><text fill="#000000" font-family="sans-serif" font-size="14" lengthAdjust="spacing" text-decoration="underline" textLength="119" x="72.5" y="490.5332">main(String[]): void</text></g></a><text fill="#888888" font-family="sans-serif" font-size="10" lengthAdjust="spacing" textLength="184" x="162.5" y="530.3809">UMLDoclet 2.1.0, PlantUML 1.2022.14</text><!--SRC=[XLAzJiCm4Dxx5BSW9Mg9W94DmLGHMb4nHHbSvqYC75-nJPUg3yKpy68uZglIr2aUVF9zttttumC0KAn5is4SWNITDQqmi9jC81mkcJ7mIBn1A0fliyQsiYmT2_wSwvPfpkvXPRLGzG2Y2YN5CVRpxH2XxAbxev6B233r9IHfpDdBp-1WNQo_1kGQRTxLcgJHYgRcWFUWOsr9LESQlgbB8ZtXiig3Qx_JEElJ1AohVoHswMSq5XtGiNZy_6BI98lr1_AEiIQIoDGfoL9VVQJB_N17veRKAx8AjLkKuoE-BJjZcHLy3rE9gFttcVbgyNASblSLvNY-d0dbCdNclnojumJbeXnE8mW7mr5Pry4xKMVUykSduX8jt6MtsSqCbf8fwxnmjKLj1Aaa_GK0]--></g></svg>